<?xml version="1.0" ?><svg height="128" viewBox="0 0 128 128" width="128" xmlns="http://www.w3.org/2000/svg"><defs><style>
      .cls-1 {
        fill: #e9faff;
      }

      .cls-2 {
        fill: #fff;
      }

      .cls-3 {
        fill: #ff859e;
      }

      .cls-4 {
        fill: #f97594;
      }

      .cls-5 {
        fill: #89d3ff;
      }

      .cls-6, .cls-7 {
        fill: none;
        stroke: #556193;
        stroke-miterlimit: 10;
        stroke-width: 2px;
      }

      .cls-7 {
        stroke-dasharray: 3.2 3.2;
      }
    </style></defs><title/><g id="circle"><circle class="cls-1" cx="64.5" cy="64.5" r="57.5"/></g><g id="icon"><g><g><circle class="cls-2" cx="64.5" cy="64.5" r="47.49"/><path class="cls-1" d="M89,23.5a46.91,46.91,0,0,0-18.33-6A44.48,44.48,0,1,1,20.52,78,47,47,0,1,0,89,23.5Z"/><g><path class="cls-3" d="M111.63,58.3a11,11,0,0,1-.67,6.77c-1.79,4.06-6.1,3.52-7.23,3.44a2.88,2.88,0,0,1-2-.66c-.73-.73-.63-2-1.18-3.36-.83-2.13-.69-3.41-3.25-5.27,0,2.5-1.41-2.11.13,8a3.5,3.5,0,0,0,3.5,3s5.48.2,6.24.39,0,2.88-1.58,5.2a48.6,48.6,0,0,1-6.19,6.92c-2.48,2.43-.63,2.25-.76,4.29a10.86,10.86,0,0,1-2.48,5.64,47.51,47.51,0,0,1-4.34,5.72,6.33,6.33,0,0,1-5.6,2.43c-2.1,0-2.48-.25-3-1.92s-2.93-5.07-2.88-7.06.66-5.57.59-8.2-1.73-1.34-2.81-2.57-.44-2.94-1.33-4.29-2.56-.91-5-.71-3.83.9-5.55,1-2.29-.25-3.63-2-2.61-1.92-3.05-4.61a51.25,51.25,0,0,1,0-9c.05-.64,2-1.74,2.87-3.08a20.86,20.86,0,0,0,1.27-2.83c.51-1,2.33-1.34,3.63-1.75l.1,0A26.14,26.14,0,0,1,71,52.67c1.92-.37,2.11-1,5.11-1.84s2.48.69,3.94,2.23a7.5,7.5,0,0,0,4.9,2.82c2.61.52,9.18-.32,9.18-.32a1.46,1.46,0,0,0-.83-1.72,4.24,4.24,0,0,1-2-1.61A3.49,3.49,0,0,0,89,51.4c-1,0-.23,1.47-.23,1.47s-.45,1-1.48-.25a4.77,4.77,0,0,1-.56-.87,1.11,1.11,0,0,0-1.45-.46,4.78,4.78,0,0,1-2.64.11,5.67,5.67,0,0,1-3.38-2.11c-1.46,0-2.73-.13-3-.13a13.24,13.24,0,0,0-4.7,2,11.08,11.08,0,0,1-4.7,1.12c-1-.25-2.54-.64-2.7-1.19-.19-.71,1-2.75,1.66-3.59s1.85.38,3.57,0,1.34-1,1.46-1.86-.44-2.5-1-2.77-2.16.91-3.36,1.1S64.11,42,64.18,41.27s1.2-.59,2.09-.84,3.25-3.14,3.88-3.46,1.34,1.35,1.46,2c.11.48.25,2.08.39,3.28,0,.39,0,.82.12,1a2.3,2.3,0,0,0,2.91.36,2.26,2.26,0,0,1,.26-.14,16,16,0,0,0,1.38-.93c.51-.88,0-2.07,0-2.75,0-.9-.46-1-.83-1.47S77.55,35,80.4,33.05s8.67-2,10.59-1.79.85,3.44,1.36,4,1.52,0,1.52,0A22.15,22.15,0,0,0,97.6,33a2.85,2.85,0,0,1,.72-.43,47.76,47.76,0,0,1,10,14.64A47.22,47.22,0,0,1,111.63,58.3Z"/><path class="cls-3" d="M52.73,107c-2.88-1.77-3.39-2.72-3.56-3.1-.83-1.75.19-2.38-.28-5.25-.53-3.18-2-3.84-1.41-5.45A22.24,22.24,0,0,0,49,90.12a1.65,1.65,0,0,0,0-1.29c-.15-.27-.47-.4-1-.79-1-.73-.16-1.75-.31-3.5s.71-1.29.54-3.24-.1-1.14-1.14-2.14a3.73,3.73,0,0,0-1.29-.94c-.63-.21-.86.15-1.25-.06s-.39-1-.63-2.21a4.75,4.75,0,0,0-1.31-2.84c-.82-.62-1.52-.13-3.22-.28-2.19-.2-2.3-1.13-4.07-1.4-3-.46-4.34,1.93-6.26,1.24-.82-.29-1.84-1.19-2.46-4-1.25-1.52-3-4.48-2-5.88.55-.77,1.37-.26,2.69-1.13,1.51-1,1-2,2.94-4.33s3.3-2.48,3.75-2.3l.07,0c.33-.05.42-1.55.43-3.22.13-.27.33-.61.6-.62s.48.53,1,.74a1.86,1.86,0,0,0,1.53-.29c2.36-1.27,3.58-.56,5.88-2.24.91-.66,2.91-2.08,3.29-4.36.23-1.38-.34-1.85,0-3.59s.95-1.82,1.41-3.42A6.87,6.87,0,0,0,48,33.41c-1.4-2.83-5.36-3.1-5.63-3.11L38.64,25l-3.75,1.64c-3,2.65-5.37,5-7,6.77a35,35,0,0,0-3.75,4.44,37.81,37.81,0,0,0-3.29,6.31c-.73,1.62-.55,3.21-1.77,6.31-1.36,3.44-2,5.16-2.11,5.61s-1.14,6,1.59,10.06A15.93,15.93,0,0,1,22.92,68a5.64,5.64,0,0,1,2.35,3.74c0,1.64-.72,2.24-.47,4.44.13,1.13.38,1.06.47,2.09.15,1.86-.6,2.82-.94,4.37s-.06,2.63.47,4.82c1.31,5.46,5.83,10.28,6.73,11.22a32,32,0,0,0,6.28,5.69,41.24,41.24,0,0,0,7.57,4c2.27,1,3.17.69,6.25,2a12.93,12.93,0,0,0,4.76,1.15c3,.58,5.11.67,5.17-.07,0-.3-.43-.74-2.51-1.4A32.68,32.68,0,0,1,52.73,107Z"/></g><g><path class="cls-4" d="M83.86,100.38c.47,1.48.9,1.72,2.88,1.72a6.19,6.19,0,0,0,5.51-2.41A47.11,47.11,0,0,0,96.51,94,10.91,10.91,0,0,0,99,88.43a2.73,2.73,0,0,0-.25-1.34A44.41,44.41,0,0,1,83.86,100.38Z"/><path class="cls-4" d="M105.56,68.57c2.21-.14,4.56-.82,5.78-3.58,1.36-3.07-.67-6.3-.88-6.63-.53-3.08-.73-6.9-2.54-11a47.49,47.49,0,0,0-9.53-14.09A45.63,45.63,0,0,1,105.56,68.57Z"/><path class="cls-4" d="M107.07,71a13.24,13.24,0,0,0-1.68-.17,42.49,42.49,0,0,1-3.89,9.71,36.55,36.55,0,0,0,4-4.59C107.07,73.77,107.83,71.21,107.07,71Z"/><path class="cls-4" d="M42.91,105.89c4.64,2.72,12.94,5.59,18,5.2-1.76-.77-5.35-2.18-6.39-2.83-2.79-1.76-5.6-4-5.61-4.46a40.64,40.64,0,0,1-8.45-4c-6.27-3.67-12.25-8.51-15.94-14.28,0,.68,1.9,6.17,2.09,7C30.6,99.56,35.54,101.56,42.91,105.89Z"/></g><circle class="cls-5" cx="90" cy="59" r="5"/><circle class="cls-5" cx="49" cy="90" r="5"/><circle class="cls-5" cx="48.5" cy="46.5" r="9.5"/></g><g><circle class="cls-6" cx="64.5" cy="64.5" r="47.49"/><line class="cls-7" x1="48" x2="47.62" y1="85" y2="56"/><line class="cls-7" x1="85.43" x2="53" y1="61.17" y2="87"/><line class="cls-7" x1="58" x2="85" y1="47" y2="56.7"/><circle class="cls-6" cx="90" cy="59" r="5"/><circle class="cls-6" cx="49" cy="90" r="5"/><circle class="cls-6" cx="48.5" cy="46.5" r="9.5"/><line class="cls-6" x1="48" x2="48" y1="37" y2="31"/><line class="cls-6" x1="39" x2="33" y1="46" y2="46"/><line class="cls-6" x1="40.87" x2="37.07" y1="38.6" y2="34.8"/><line class="cls-6" x1="59.16" x2="55.36" y1="56.9" y2="53.09"/><line class="cls-6" x1="41.11" x2="37.31" y1="53.81" y2="57.61"/><line class="cls-6" x1="60.23" x2="55.25" y1="34.68" y2="39.87"/></g></g></g></svg>